<svg width="142" height="40" viewBox="0 0 142 40" fill="none" xmlns="http://www.w3.org/2000/svg">
<g clip-path="url(#clip0_612_98)">
<path fill-rule="evenodd" clip-rule="evenodd" d="M38.9912 13.4362C38.9912 6.02023 45.0107 0 52.4256 0C59.8615 0 65.8602 6.02023 65.8602 13.4362C65.8602 20.8521 59.8406 26.8723 52.4256 26.8723C45.0107 26.8723 38.9912 20.8521 38.9912 13.4362ZM47.0518 13.4362C47.0518 16.4151 49.468 18.8107 52.4256 18.8107C55.4042 18.8107 57.7994 16.3942 57.7994 13.4362C57.7994 10.4573 55.3833 8.06172 52.4256 8.06172C49.4471 8.06172 47.0518 10.4781 47.0518 13.4362Z" fill="#00BAD5"/>
<path d="M2.74938 0.604126H12.3306C13.8511 0.604126 15.0799 1.83317 15.0799 3.35385V4.5829C15.0799 6.10358 13.8511 7.33263 12.3306 7.33263H8.18565V10.1657H12.2264C13.7469 10.1657 14.9758 11.3947 14.9758 12.9154V13.7695C14.9758 15.2902 13.7469 16.5193 12.2264 16.5193H8.18565V23.4352C8.18565 24.9559 6.95676 26.1849 5.43627 26.1849H2.74938C1.22889 26.1849 0 24.9559 0 23.4352V3.37468C0 1.854 1.22889 0.604126 2.74938 0.604126Z" fill="#00BAD5"/>
<path d="M70.7343 0.604126H73.2754C74.171 0.604126 75.0042 1.04158 75.5249 1.74984L81.7736 10.4573V3.37468C81.7736 1.854 83.0026 0.624957 84.5226 0.624957H87.0434C88.5634 0.624957 89.7924 1.854 89.7924 3.37468V23.4769C89.7924 24.9975 88.5634 26.2266 87.0434 26.2266H84.4606C83.5649 26.2266 82.7312 25.7891 82.2112 25.0809L76.0039 16.4151V23.4769C76.0039 24.9975 74.7751 26.2266 73.2545 26.2266H70.7343C69.2138 26.2266 67.9849 24.9975 67.9849 23.4769V3.37468C67.9849 1.854 69.2138 0.604126 70.7343 0.604126Z" fill="#00BAD5"/>
<path d="M104.809 0.604126H95.228C93.708 0.604126 92.479 1.854 92.479 3.37468V23.4352C92.479 24.9559 93.708 26.1849 95.228 26.1849H105.081C106.601 26.1849 107.83 24.9559 107.83 23.4352V22.227C107.83 20.7063 106.601 19.4773 105.081 19.4773H100.665V16.5193H104.706C106.226 16.5193 107.455 15.2902 107.455 13.7695V12.9154C107.455 11.3947 106.226 10.1657 104.706 10.1657H100.665V7.33263H104.809C106.33 7.33263 107.559 6.10358 107.559 4.5829V3.35385C107.559 1.83317 106.33 0.604126 104.809 0.604126Z" fill="#00BAD5"/>
<path d="M135.261 0.604126H138.427C139.947 0.604126 141.176 1.83317 141.176 3.35385V23.456C141.176 24.9767 139.947 26.2058 138.427 26.2058H135.261C133.74 26.2058 132.511 24.9767 132.511 23.456V3.37468C132.511 1.854 133.74 0.604126 135.261 0.604126Z" fill="#00BAD5"/>
<path fill-rule="evenodd" clip-rule="evenodd" d="M126.971 17.8108C129.137 16.0401 130.388 13.332 130.388 10.2907C130.388 5.187 126.534 0.66662 119.078 0.624957C119.035 0.604126 118.994 0.604126 118.973 0.604126H112.891C111.371 0.604126 110.142 1.83317 110.142 3.35385V23.456C110.142 24.9767 111.371 26.2058 112.891 26.2058H115.557C117.078 26.2058 118.307 24.9767 118.307 23.456V19.7273L121.348 24.8726C121.848 25.7058 122.743 26.2266 123.722 26.2266H128.054C129.7 26.2266 130.741 24.456 129.929 23.0186L126.971 17.8108ZM119.473 13.207H118.307V7.52011H119.473C121.035 7.52011 122.306 8.79078 122.306 10.3531C122.326 11.9364 121.035 13.207 119.473 13.207Z" fill="#00BAD5"/>
<path fill-rule="evenodd" clip-rule="evenodd" d="M63.4233 27.6847C64.4855 26.8098 66.0269 26.8932 67.0266 27.8306L69.0887 29.7679C70.276 30.8928 70.2551 32.8093 69.0054 33.8716C58.591 42.6625 43.2404 41.8501 33.7633 32.3718C31.8887 30.5178 27.7022 25.2684 25.3694 18.9565V23.456C25.3694 24.9767 24.1405 26.2058 22.62 26.2058H19.9539C18.4335 26.2058 17.2046 24.9767 17.2046 23.456V3.35385C17.2046 1.83317 18.4335 0.604126 19.9539 0.604126H26.0567C33.4926 0.645789 37.4708 5.187 37.4708 10.2907C37.4708 13.332 36.2211 16.0609 34.0549 17.8108C34.8047 19.8939 37.3042 24.1226 39.6786 26.4766C46.1147 32.8718 56.3207 33.4967 63.4233 27.6847ZM25.3902 13.207H26.5566C28.1188 13.207 29.3893 11.9364 29.3893 10.3531C29.3893 8.79078 28.1188 7.52011 26.5566 7.52011H25.3902V13.207Z" fill="#00BAD5"/>
</g>
<defs>
<clipPath id="clip0_612_98">
<rect width="141.176" height="40" fill="white"/>
</clipPath>
</defs>
</svg>
