<svg width="504" height="243" viewBox="0 0 504 243" fill="none" xmlns="http://www.w3.org/2000/svg">
<path fill-rule="evenodd" clip-rule="evenodd" d="M233.669 92.8152C236.741 93.0899 248.21 92.1434 250.771 103.426C261.639 93.0331 259.528 79.3482 251.768 73.9369C238.714 64.8347 224.804 73.1554 223.542 82.5702C222.731 88.6247 226.283 92.155 233.669 92.8152ZM501.144 77.9687C493.934 77.7206 483.288 89.5264 474.587 89.5581C468.852 89.5786 468.426 85.2196 471.861 77.9157C484.603 50.8179 469.129 51.6818 465.811 54.2331C465.811 54.2331 476.87 34.8495 457.363 34.9198C433.326 35.0075 411.999 55.0463 400.835 84.8557C396.759 95.0049 387.775 116.7 378.334 119.394C369.291 121.834 369.319 110.053 363.541 107.92C401.961 82.192 402.399 61.4153 396.371 54.3432C390.906 48.1558 372.754 46.194 350.217 69.3311C355.731 48.7889 371.361 36.1576 375.113 15.4952C377.069 3.32747 368.062 -9.27029 350.949 10.981C339.356 24.6535 333.355 49.6593 322.167 81.5936C315.477 101 302.212 135.922 290.351 135.965C285.178 135.983 283.72 131.381 285.335 118.708C288.4 93.8672 308.506 65.3017 315.539 44.7545C320.774 31.0546 315.583 22.966 309.619 21.5938C301.64 20.1026 290.306 27.6174 281.883 48.1704C275.217 62.3823 269.782 81.9103 265.785 104.094C262.073 122.603 247.366 158.944 233.067 157.096C227.735 156.407 233.145 143.083 239.693 129.814C245.254 118.545 249.639 104.933 237.899 104.913C219.806 104.881 206.535 141.949 204.392 169.573C203.351 183.005 202.892 198.546 213.35 198.508C226.216 198.462 242.939 185.057 258.578 161.691C259.709 174.715 276.423 192.017 308.658 145.557C309.135 152.641 310.75 163.139 316.138 163.467C316.138 163.467 321.091 164.83 326.206 153.292C331.321 141.753 336.897 127.184 338.067 124.413C340.797 117.944 345.891 116.726 346.369 127.762C346.86 139.093 349.898 147.496 359.175 147.462C377.392 147.396 393.182 130.801 397.715 124.535C400.329 134.322 422.691 137.789 447.055 108.48C448.14 116.245 454.92 127.538 485.598 103.779C504.956 89.0145 506.676 78.1595 501.144 77.9687ZM346.735 96.9798C346.04 97.0239 344.808 96.4061 345.319 95.0988C347.767 88.8264 351.717 83.3622 356.708 79.1338C361.131 75.3887 365.866 73.1388 369.375 73.1168C372.686 73.0967 374.646 75.1299 374.488 78.4237C374.365 81.026 372.774 84.1646 369.724 86.9647C358.893 96.9095 347.653 96.923 346.735 96.9798ZM451.071 65.1128C440.591 81.2424 444.348 83.1389 436.677 94.719C430.51 104.03 421.951 106.455 418.76 101.623C415.571 96.7886 418.795 86.1028 425.963 77.7562C433.132 69.4076 455.828 57.7919 451.071 65.1128ZM185.188 171.73C188.102 117.501 217.731 72.4646 218.752 53.4728C219.163 45.8281 215.071 39.8122 205.856 40.2171C190.31 40.9017 162.512 62.9788 148.608 90.7596C140.914 67.3844 122.272 81.1937 113.486 91.4712C115.131 47.5465 101.609 43.7837 93.712 44.1314C69.0736 45.2158 43.341 78.1888 29.4038 102.091C16.5184 124.191 -16.2896 190.043 9.80044 193.967C16.2561 194.937 22.7942 187.611 27.3051 170.688C44.3386 106.784 64.6989 92.1577 72.961 92.7777C94.8279 94.42 66.5838 175.364 56.9401 203.885C51.562 219.079 46.9491 243.71 64.4131 242.942C83.9109 242.084 92.0921 193.253 96.7399 166.714C102.002 137.644 109.481 128.231 116.966 128.855C125.741 129.898 122.058 147.338 116.267 164.048C111.056 181.088 93.1844 222.729 114.21 224.544C135.411 225.28 134.481 187.069 140.311 162.989C149.181 126.722 159.09 102.215 169.721 104.249C182.819 107.009 152.219 154.591 150.189 192.336C148.617 221.6 161.915 242.822 181.213 234.585C201.538 224.991 183.615 200.994 185.188 171.73Z" fill="white"/>
</svg>
